<?xml version="1.0" encoding="utf-8"?>
<!-- Generator: Adobe Illustrator 21.0.2, SVG Export Plug-In . SVG Version: 6.00 Build 0)  -->
<svg version="1.1" id="Layer_1" xmlns="http://www.w3.org/2000/svg" xmlns:xlink="http://www.w3.org/1999/xlink" x="0px" y="0px"
	 viewBox="0 0 150 150" style="enable-background:new 0 0 150 150;" xml:space="preserve">
<style type="text/css">
	.st0{fill:#2A7FB8;}
	.st1{fill:#FFFFFF;}
</style>
<title></title>
<circle class="st0" cx="75" cy="75" r="65"/>
<path class="st1" d="M43.7,102.6h70.4c0.5,0,0.9-0.5,0.9-1l0,0V47.3c0-0.5-0.3-1-0.8-1l0,0H43.7c-0.5,0-0.9,0.5-0.9,1l0,0v54.3
	C42.8,102.1,43.2,102.5,43.7,102.6z"/>
<path class="st0" d="M109.4,71.1c0,0.6-0.4,1-1,1H83.5c-0.6,0-1-0.4-1-1V53.8c0-0.6,0.4-1,1-1h24.9c0.6,0,1,0.4,1,1V71.1L109.4,71.1
	z"/>
<rect x="48.9" y="52.8" class="st0" width="8.7" height="4.5"/>
<rect x="48.9" y="69.7" class="st0" width="29.3" height="2.6"/>
<rect x="48.9" y="65.5" class="st0" width="29.3" height="2.6"/>
<rect x="48.9" y="77.5" class="st0" width="60.5" height="3"/>
<rect x="48.9" y="82.7" class="st0" width="60.5" height="3"/>
<rect x="48.9" y="88" class="st0" width="60.5" height="3"/>
<rect x="48.9" y="93.5" class="st0" width="60.5" height="3"/>
<path class="st1" d="M42,49.5l-5,0.2c-0.4,0.1-0.7,0.5-0.6,1l5,51c0,0.4,0.3,0.8,0.7,0.9L42,49.5L42,49.5z"/>
<path class="st1" d="M40.5,101.7l-4.9-49.9L31,51.9c-0.4,0.1-0.7,0.5-0.6,1l9.4,48.6c0,0.4,0.3,0.8,0.7,0.9h0.3
	C40.6,102.2,40.5,101.9,40.5,101.7z"/>
</svg>
