<?xml version="1.0" encoding="utf-8"?>
<!-- Generator: Adobe Illustrator 21.0.2, SVG Export Plug-In . SVG Version: 6.00 Build 0)  -->
<svg version="1.1" id="Layer_1" xmlns="http://www.w3.org/2000/svg" xmlns:xlink="http://www.w3.org/1999/xlink" x="0px" y="0px"
	 viewBox="0 0 150 150" style="enable-background:new 0 0 150 150;" xml:space="preserve">
<style type="text/css">
	.st0{fill:#2A7FB8;}
	.st1{fill:#FFFFFF;}
</style>
<title></title>
<circle class="st0" cx="75" cy="75" r="65"/>
<path class="st1" d="M83.7,95.2c-16.9-3.2-28-19.5-24.8-36.4c0.7-3.5,1.9-6.8,3.7-9.9C47,56.2,40.1,74.7,47.3,90.3
	s25.7,22.4,41.3,15.2c5.8-2.7,10.6-7,13.8-12.5C96.5,95.7,90,96.5,83.7,95.2z"/>
<path class="st1" d="M82,36.8c-5.8,0-8.7-6.4-8.7-12.2c0,5.8-2.9,12.2-8.7,12.2c5.8,0,8.7,6.4,8.7,12.2C73.3,43.3,76.2,36.8,82,36.8
	z"/>
<path class="st1" d="M91.8,66c-3.3,0-5-3.7-5-7c0,3.3-1.7,7-5,7c3.3,0,5,3.7,5,7C86.8,69.7,88.5,66,91.8,66z"/>
<path class="st1" d="M103.1,48.2c-4.3,0-6.5-4.8-6.5-9.1c0,4.3-2.2,9.2-6.5,9.2c4.3,0,6.5,4.8,6.5,9.2C96.6,53,98.8,48.2,103.1,48.2
	z"/>
</svg>
