<?xml version="1.0" encoding="utf-8"?>
<!-- Generator: Adobe Illustrator 21.0.2, SVG Export Plug-In . SVG Version: 6.00 Build 0)  -->
<svg version="1.1" id="Layer_1" xmlns="http://www.w3.org/2000/svg" xmlns:xlink="http://www.w3.org/1999/xlink" x="0px" y="0px"
	 viewBox="0 0 150 150" style="enable-background:new 0 0 150 150;" xml:space="preserve">
<style type="text/css">
	.st0{fill:#2A7FB8;}
	.st1{clip-path:url(#SVGID_2_);}
	.st2{fill:#FFFFFF;}
</style>
<title></title>
<circle class="st0" cx="75" cy="75" r="65"/>
<g>
	<g>
		<defs>
			<circle id="SVGID_1_" cx="75" cy="75" r="65"/>
		</defs>
		<clipPath id="SVGID_2_">
			<use xlink:href="#SVGID_1_"  style="overflow:visible;"/>
		</clipPath>
		<g class="st1">
			<path class="st2" d="M76.8,135.1h-3.3l0.2-10.1h2.9L76.8,135.1z M76.4,115h-2.5l0.2-10.1h2.1L76.4,115z"/>
			<polygon class="st2" points="77.1,150.6 73.2,150.6 73.3,145.2 77,145.2 			"/>
			<path class="st2" d="M102.3,99.7c1.7-1.4,2.7-3.5,2.7-5.7V65.8h4c1.3,0,2.4-1.1,2.4-2.4l0,0V62h0.8c1,0,1.7-0.8,1.7-1.7v-8.1
				c0-1-0.8-1.7-1.7-1.7h-0.8v-3.1c0-1.3-1.1-2.4-2.4-2.4l0,0h-4v-1c0-4.1-3.3-7.3-7.3-7.3H52.4C48.3,36.7,45,40,45,44l0,0v0.9h-4.9
				c-1.3,0-2.4,1.1-2.4,2.4l0,0v3.1H37c-1,0-1.7,0.8-1.7,1.7l0,0v8.1c0,1,0.7,1.8,1.7,1.8c0,0,0,0,0.1,0h0.8v1.4
				c0,1.3,1.1,2.4,2.4,2.4l0,0H45V94c0,2.4,1.2,4.6,3.1,6l-23,35.4l0.9,0.5c1.4,0.9,35.5,21.1,48.9,21.1H75
				c13.4-0.1,47.8-21.3,49.2-22.2l0.8-0.5L102.3,99.7z M105,46.2h4c0.6,0,1.1,0.5,1.1,1.1v3.1h-0.8c-1,0-1.7,0.8-1.7,1.7v8.1
				c0,1,0.7,1.8,1.7,1.8l0,0h0.8v1.4c0,0.6-0.5,1.1-1.1,1.1h-4V46.2z M45,64.5h-4.9c-0.6,0-1.1-0.5-1.1-1.1l0,0V62h0.8
				c1,0,1.7-0.8,1.7-1.7l0,0v-8.1c0-1-0.8-1.7-1.7-1.7l0,0H39v-3.1c0-0.6,0.5-1.1,1.1-1.1l0,0H45V64.5z M75,155.2l-0.1,0.9L75,155.2
				c-11.9,0-42.1-17.3-47.3-20.4l21.4-33v3.6c0,1,0.8,1.7,1.7,1.7h3.5c0.9,0,1.7-0.8,1.7-1.7v-4.2h38.6v4.2c0,1,0.8,1.7,1.7,1.7h3.5
				c1,0,1.7-0.8,1.7-1.7v-3.8l21,32C117.3,136.9,86.9,155.1,75,155.2z"/>
			<path class="st0" d="M53.8,42.4h42.4c2,0,3.6,1.6,3.6,3.5v16.8c0,2-1.6,3.5-3.6,3.5H53.8c-2,0-3.5-1.6-3.5-3.5V45.9
				C50.2,43.9,51.8,42.4,53.8,42.4z"/>
			<circle class="st0" cx="53.3" cy="93.1" r="4.2"/>
			<circle class="st0" cx="96.5" cy="93.1" r="4.2"/>
			<path class="st2" d="M93.8,48.2c-0.1,0-0.1,0-0.2,0l-18.8-6.7c-0.3-0.2-0.3-0.5-0.1-0.8c0.1-0.2,0.3-0.3,0.5-0.2L94,47.2
				c0.3,0.1,0.4,0.4,0.4,0.7C94.3,48.1,94,48.2,93.8,48.2z"/>
		</g>
	</g>
</g>
</svg>
