<?xml version="1.0" encoding="utf-8"?>
<!-- Generator: Adobe Illustrator 21.0.2, SVG Export Plug-In . SVG Version: 6.00 Build 0)  -->
<svg version="1.1" id="Layer_1" xmlns="http://www.w3.org/2000/svg" xmlns:xlink="http://www.w3.org/1999/xlink" x="0px" y="0px"
	 viewBox="0 0 150 150" style="enable-background:new 0 0 150 150;" xml:space="preserve">
<style type="text/css">
	.st0{fill:#2A7FB8;}
	.st1{fill:#41C0F9;}
	.st2{fill:#FFFFFF;}
</style>
<title></title>
<circle class="st0" cx="75" cy="75" r="65"/>
<ellipse class="st1" cx="75" cy="103.6" rx="17.9" ry="6.4"/>
<path class="st2" d="M75,40c-11.8,0-21.4,9.6-21.4,21.4c0,3,0.6,5.9,1.8,8.6v0.1c3.5,8.5,19.6,30.6,19.6,30.6S90.6,80.2,94.6,70
	v-0.1c4.7-10.9-0.3-23.5-11.2-28.1C80.8,40.6,77.9,40,75,40z M75,73.9c-7.5,0-13.5-6-13.5-13.5s6-13.5,13.5-13.5s13.5,6,13.5,13.5
	S82.5,73.9,75,73.9L75,73.9z"/>
</svg>
