<?xml version="1.0" encoding="utf-8"?>
<!-- Generator: Adobe Illustrator 21.0.2, SVG Export Plug-In . SVG Version: 6.00 Build 0)  -->
<svg version="1.1" id="Layer_1" xmlns="http://www.w3.org/2000/svg" xmlns:xlink="http://www.w3.org/1999/xlink" x="0px" y="0px"
	 viewBox="0 0 300.1 129.9" style="enable-background:new 0 0 300.1 129.9;" xml:space="preserve">
<style type="text/css">
	.st0{fill:url(#SVGID_1_);}
	.st1{fill:url(#SVGID_2_);}
	.st2{fill:url(#SVGID_3_);}
	.st3{fill:url(#SVGID_4_);}
	.st4{fill:url(#SVGID_5_);}
	.st5{fill:#FFFFFF;}
</style>
<g>
	<g>
		<linearGradient id="SVGID_1_" gradientUnits="userSpaceOnUse" x1="12.29" y1="42.2244" x2="77.9411" y2="107.8755">
			<stop  offset="0.1" style="stop-color:#95C11F"/>
			<stop  offset="0.5" style="stop-color:#0069B4"/>
			<stop  offset="0.9" style="stop-color:#E6007E"/>
		</linearGradient>
		<path class="st0" d="M8.6,58.4c0,3.2,2.6,5.8,5.8,5.8h49.7c7.9,0,14.4,6.5,14.4,14.4v36.9c0,7.9-6.5,14.4-14.4,14.4v-8.6
			c3.2,0,5.8-2.6,5.8-5.8V78.6c0-3.2-2.6-5.8-5.8-5.8H14.4C6.5,72.8,0,66.4,0,58.4H8.6z"/>
		<linearGradient id="SVGID_2_" gradientUnits="userSpaceOnUse" x1="64.6036" y1="7.2355" x2="116.1958" y2="58.8277">
			<stop  offset="6.451600e-02" style="stop-color:#009FE3"/>
			<stop  offset="0.9" style="stop-color:#95C11F"/>
		</linearGradient>
		<path class="st1" d="M118.7,57.6H89.6c-5.9,0-10.8-4.8-10.8-10.8c0-5.9,4.8-10.8,10.8-10.8h29.1c5.9,0,10.8,4.8,10.8,10.8
			C129.5,52.7,124.7,57.6,118.7,57.6z M89.6,44c-1.5,0-2.8,1.2-2.8,2.8c0,1.5,1.2,2.8,2.8,2.8h29.1c1.5,0,2.8-1.2,2.8-2.8
			c0-1.5-1.3-2.8-2.8-2.8H89.6z"/>
		<linearGradient id="SVGID_3_" gradientUnits="userSpaceOnUse" x1="11.5576" y1="44.5137" x2="67.0296" y2="99.9857">
			<stop  offset="0.1" style="stop-color:#95C11F"/>
			<stop  offset="0.5" style="stop-color:#F39200"/>
			<stop  offset="0.9" style="stop-color:#E6007E"/>
		</linearGradient>
		<path class="st2" d="M49.7,58.4c0-3.2-2.6-5.8-5.8-5.8H14.4c-3.2,0-5.8,2.6-5.8,5.8H0C0,50.5,6.5,44,14.4,44h29.5
			c8,0,14.4,6.5,14.4,14.4v57.1c0,3.2,2.6,5.8,5.8,5.8v8.6c-8,0-14.4-6.5-14.4-14.4V58.4z"/>
		<linearGradient id="SVGID_4_" gradientUnits="userSpaceOnUse" x1="59.5401" y1="16.0283" x2="109.4846" y2="65.9727">
			<stop  offset="6.451600e-02" style="stop-color:#009FE3"/>
			<stop  offset="0.9" style="stop-color:#95C11F"/>
		</linearGradient>
		<path class="st3" d="M73.9,28.4H54.3c-4.3,0-7.8-3.5-7.8-7.8c0-4.3,3.5-7.8,7.8-7.8h19.6c4.3,0,7.8,3.5,7.8,7.8
			C81.7,24.9,78.2,28.4,73.9,28.4z M54.3,18.7c-1,0-1.9,0.8-1.9,1.9c0,1,0.8,1.9,1.9,1.9h19.6c1,0,1.9-0.8,1.9-1.9
			c0-1-0.8-1.9-1.9-1.9H54.3z"/>
		<linearGradient id="SVGID_5_" gradientUnits="userSpaceOnUse" x1="86.8024" y1="-11.028" x2="136.7078" y2="38.8774">
			<stop  offset="6.451600e-02" style="stop-color:#009FE3"/>
			<stop  offset="0.9" style="stop-color:#95C11F"/>
		</linearGradient>
		<path class="st4" d="M112.5,12.8H96c-3.5,0-6.4-2.9-6.4-6.4C89.6,2.9,92.5,0,96,0h16.5c3.5,0,6.4,2.9,6.4,6.4
			C118.9,9.9,116,12.8,112.5,12.8z M96,4.6c-1,0-1.8,0.8-1.8,1.8c0,1,0.8,1.8,1.8,1.8h16.5c1,0,1.8-0.8,1.8-1.8c0-1-0.8-1.8-1.8-1.8
			H96z"/>
	</g>
	<g>
		<g>
			<path class="st5" d="M145.6,74.4c0,3,2.5,5.5,5.5,5.5h25.8v-8.1h-20.4c-1.1,0-2-0.9-2-2V59H174v-8.1h-19.5V39.8h22.4v-8.1h-31.3
				V74.4z"/>
			<polygon class="st5" points="204.9,30.8 204.9,50.9 195.6,50.9 195.6,30.8 186.6,30.8 186.6,81.3 195.6,81.3 195.6,59 204.9,59 
				204.9,81.3 213.8,81.3 213.8,30.8 			"/>
		</g>
		<g>
			<path class="st5" d="M266.9,49.7c0-10.7-8.7-19.4-19.5-19.4c-10.8,0-19.5,8.7-19.5,19.4c0,10.7,8.7,19.4,19.5,19.4
				C258.2,69.1,266.9,60.4,266.9,49.7z M236.9,49.7c0-5.9,4.7-10.7,10.5-10.7c5.8,0,10.6,4.8,10.6,10.7c0,5.9-4.7,10.7-10.6,10.7
				C241.6,60.4,236.9,55.6,236.9,49.7z"/>
			<polygon class="st5" points="300.1,47.8 287.4,47.8 287.4,30.8 278.5,30.8 278.5,75.1 287.4,75.1 287.4,55.9 300.1,55.9 			"/>
			<path class="st5" d="M251.9,89.3V75.1H243V94c0,3,2.5,5.5,5.5,5.5h38.8v-8.1h-33.3C252.8,91.4,251.9,90.5,251.9,89.3z"/>
		</g>
		<polygon class="st5" points="145.9,90.6 148.4,90.6 148.4,99.5 150.2,99.5 150.2,90.6 152.8,90.6 152.8,88.9 145.9,88.9 		"/>
		<path class="st5" d="M175.7,98.5c0,0.6,0.5,1.1,1.1,1.1h5.6v-1.6h-4.5c-0.2,0-0.4-0.2-0.4-0.4v-2.7h4.3v-1.6h-4.3v-2.6h4.7v-1.6
			h-6.5L175.7,98.5z"/>
		<polygon class="st5" points="212,88.9 212,96 208.1,88.9 206.4,88.9 206.4,99.5 208.2,99.5 208.2,92.4 212.1,99.5 213.8,99.5 
			213.8,88.9 		"/>
		<path class="st5" d="M163.5,88.7c-2,0-3.7,1.6-3.7,3.7v7.2h1.8v-3.8h3.7v3.8h1.8v-7.2C167.1,90.3,165.5,88.7,163.5,88.7z
			 M161.6,94.1v-2c0-1,0.8-1.8,1.8-1.8c1,0,1.8,0.8,1.8,1.8v2H161.6z"/>
		<path class="st5" d="M194.6,88.7c-2,0-3.7,1.6-3.7,3.7v7.2h1.8v-3.8h3.7v3.8h1.8v-7.2C198.2,90.3,196.6,88.7,194.6,88.7z
			 M192.7,94.1v-2c0-1,0.8-1.8,1.8-1.8s1.8,0.8,1.8,1.8v2H192.7z"/>
	</g>
</g>
</svg>
