<?xml version="1.0" encoding="utf-8"?>
<!-- Generator: Adobe Illustrator 21.0.2, SVG Export Plug-In . SVG Version: 6.00 Build 0)  -->
<svg version="1.1" id="Layer_1" xmlns="http://www.w3.org/2000/svg" xmlns:xlink="http://www.w3.org/1999/xlink" x="0px" y="0px"
	 viewBox="0 0 154.6 69.2" style="enable-background:new 0 0 154.6 69.2;" xml:space="preserve">
<style type="text/css">
	.st0{fill:#FFFFFF;}
</style>
<g>
	<g>
		<path class="st0" d="M0,44.1c0,3,2.5,5.5,5.5,5.5h25.8v-8.1H11c-1.1,0-2-0.9-2-2V28.7h19.5v-8.1H8.9V9.4h22.4V1.3H0V44.1z"/>
		<polygon class="st0" points="59.3,0.5 59.3,20.6 50,20.6 50,0.5 41.1,0.5 41.1,51 50,51 50,28.7 59.3,28.7 59.3,51 68.2,51 
			68.2,0.5 		"/>
	</g>
	<g>
		<path class="st0" d="M121.3,19.4c0-10.7-8.7-19.4-19.5-19.4C91.1,0,82.4,8.7,82.4,19.4c0,10.7,8.7,19.4,19.5,19.4
			C112.6,38.7,121.3,30.1,121.3,19.4z M91.3,19.4c0-5.9,4.7-10.7,10.5-10.7c5.8,0,10.6,4.8,10.6,10.7c0,5.9-4.7,10.7-10.6,10.7
			C96,30.1,91.3,25.3,91.3,19.4z"/>
		<polygon class="st0" points="154.6,17.4 141.9,17.4 141.9,0.5 132.9,0.5 132.9,44.7 141.9,44.7 141.9,25.6 154.6,25.6 		"/>
		<path class="st0" d="M106.3,59V44.7h-8.9v18.9c0,3,2.5,5.5,5.5,5.5h38.8V61h-33.3C107.2,61,106.3,60.1,106.3,59z"/>
	</g>
	<polygon class="st0" points="0.3,60.2 2.8,60.2 2.8,69.2 4.7,69.2 4.7,60.2 7.2,60.2 7.2,58.6 0.3,58.6 	"/>
	<path class="st0" d="M30.1,68.1c0,0.6,0.5,1.1,1.1,1.1h5.6v-1.6h-4.5c-0.2,0-0.4-0.2-0.4-0.4v-2.7h4.3v-1.6h-4.3v-2.6h4.7v-1.6
		h-6.5L30.1,68.1z"/>
	<polygon class="st0" points="66.4,58.6 66.4,65.7 62.6,58.6 60.8,58.6 60.8,69.2 62.6,69.2 62.6,62.1 66.5,69.2 68.2,69.2 
		68.2,58.6 	"/>
	<path class="st0" d="M17.9,58.3c-2,0-3.7,1.6-3.7,3.7v7.2H16v-3.8h3.7v3.8h1.8V62C21.5,60,19.9,58.3,17.9,58.3z M16,63.8v-2
		c0-1,0.8-1.8,1.8-1.8c1,0,1.8,0.8,1.8,1.8v2H16z"/>
	<path class="st0" d="M49,58.3c-2,0-3.7,1.6-3.7,3.7v7.2h1.8v-3.8h3.7v3.8h1.8V62C52.6,60,51,58.3,49,58.3z M47.1,63.8v-2
		c0-1,0.8-1.8,1.8-1.8s1.8,0.8,1.8,1.8v2H47.1z"/>
</g>
</svg>
